<svg width="512.000000" height="512.000000" viewBox="0.000000 -1024.000000 512.000000 512.000000" xmlns="http://www.w3.org/2000/svg"><path d="M360.000000 -1024.000000L360.000000 -1008.000000L485.000000 -1008.000000L336.000000 -859.000000C300.000000 -892.000000 252.000000 -912.000000 200.000000 -912.000000C90.000000 -912.000000 0.000000 -822.000000 0.000000 -712.000000C0.000000 -602.000000 90.000000 -512.000000 200.000000 -512.000000C310.000000 -512.000000 400.000000 -602.000000 400.000000 -712.000000C400.000000 -764.000000 380.000000 -812.000000 347.000000 -848.000000L496.000000 -997.000000L496.000000 -872.000000L512.000000 -872.000000L512.000000 -1016.000000L504.000000 -1024.000000ZM200.000000 -528.000000C99.000000 -528.000000 16.000000 -611.000000 16.000000 -712.000000C16.000000 -813.000000 99.000000 -896.000000 200.000000 -896.000000C301.000000 -896.000000 384.000000 -813.000000 384.000000 -712.000000C384.000000 -611.000000 301.000000 -528.000000 200.000000 -528.000000ZM200.000000 -528.000000"></path></svg>