<svg width="30.000000" height="30.000000" viewBox="0.000000 -60.000000 30.000000 30.000000" xmlns="http://www.w3.org/2000/svg"><path d="M21.093750 -60.000000L21.093750 -59.062500L28.417969 -59.062500L19.687500 -50.332031C17.421875 -52.402344 14.765625 -53.437500 11.718750 -53.437500C8.515625 -53.437500 5.761719 -52.285156 3.457031 -49.980469C1.152344 -47.675781 0.000000 -44.921875 0.000000 -41.718750C0.000000 -38.515625 1.152344 -35.761719 3.457031 -33.457031C5.761719 -31.152344 8.515625 -30.000000 11.718750 -30.000000C14.921875 -30.000000 17.675781 -31.152344 19.980469 -33.457031C22.285156 -35.761719 23.437500 -38.515625 23.437500 -41.718750C23.437500 -44.765625 22.402344 -47.421875 20.332031 -49.687500L29.062500 -58.417969L29.062500 -51.093750L30.000000 -51.093750L30.000000 -59.531250L29.531250 -60.000000ZM11.718750 -30.937500C8.750000 -30.937500 6.210938 -31.992188 4.101562 -34.101562C1.992188 -36.210938 0.937500 -38.750000 0.937500 -41.718750C0.937500 -44.687500 1.992188 -47.226562 4.101562 -49.335938C6.210938 -51.445312 8.750000 -52.500000 11.718750 -52.500000C14.687500 -52.500000 17.226562 -51.445312 19.335938 -49.335938C21.445312 -47.226562 22.500000 -44.687500 22.500000 -41.718750C22.500000 -38.750000 21.445312 -36.210938 19.335938 -34.101562C17.226562 -31.992188 14.687500 -30.937500 11.718750 -30.937500ZM11.718750 -30.937500"></path></svg>